<svg width="24" height="29" viewBox="0 0 24 29" fill="none" xmlns="http://www.w3.org/2000/svg">
<path d="M14.6719 17.1758L17.0098 20.1816L19.207 22.748L23.4609 28.1094H18.5039L15.5684 24.4883L14.1094 22.4141L10.1543 17.1758H14.6719ZM23.8652 13.2734C23.8652 15.9688 23.3496 18.3066 22.3184 20.2871C21.2988 22.2559 19.8867 23.7617 18.082 24.8047C16.2891 25.8359 14.2559 26.3516 11.9824 26.3516C9.70898 26.3516 7.66992 25.8359 5.86523 24.8047C4.07227 23.7617 2.66016 22.25 1.62891 20.2695C0.609375 18.2891 0.0996094 15.957 0.0996094 13.2734C0.0996094 10.5547 0.609375 8.21094 1.62891 6.24219C2.66016 4.27344 4.07227 2.77344 5.86523 1.74219C7.66992 0.710937 9.70898 0.195312 11.9824 0.195312C14.2559 0.195312 16.2891 0.710937 18.082 1.74219C19.8867 2.77344 21.2988 4.27344 22.3184 6.24219C23.3496 8.21094 23.8652 10.5547 23.8652 13.2734ZM18.5215 13.2734C18.5215 11.4805 18.252 9.95703 17.7129 8.70312C17.1855 7.44922 16.4297 6.5 15.4453 5.85547C14.4727 5.19922 13.3184 4.87109 11.9824 4.87109C10.6582 4.87109 9.50391 5.19922 8.51953 5.85547C7.54688 6.5 6.79102 7.44922 6.25195 8.70312C5.71289 9.95703 5.44336 11.4805 5.44336 13.2734C5.44336 15.0664 5.71289 16.5898 6.25195 17.8438C6.79102 19.0977 7.54688 20.0527 8.51953 20.709C9.50391 21.3535 10.6582 21.6758 11.9824 21.6758C13.3184 21.6758 14.4727 21.3535 15.4453 20.709C16.4297 20.0527 17.1855 19.0977 17.7129 17.8438C18.252 16.5898 18.5215 15.0664 18.5215 13.2734Z" fill="#4BB99E"/>
</svg>
